<?xml version="1.0" standalone="no"?><!DOCTYPE svg PUBLIC "-//W3C//DTD SVG 1.1//EN" "http://www.w3.org/Graphics/SVG/1.1/DTD/svg11.dtd"><svg t="1488467935746" class="icon" style="" viewBox="0 0 1024 1024" version="1.1" xmlns="http://www.w3.org/2000/svg" p-id="3522" xmlns:xlink="http://www.w3.org/1999/xlink" width="25" height="25"><defs><style type="text/css"></style></defs><path d="M844.8 742.4l-57.6-115.2L787.2 448c0-115.2-76.8-224-185.6-262.4C595.2 147.2 556.8 115.2 512 115.2S428.8 147.2 422.4 192C313.6 230.4 236.8 332.8 236.8 448l0 179.2-57.6 115.2c-6.4 6.4-6.4 19.2 0 32 6.4 6.4 12.8 12.8 25.6 12.8l614.4 0c12.8 0 19.2-6.4 25.6-12.8C851.2 768 851.2 755.2 844.8 742.4z" p-id="3523" fill="#7c879a"></path><path d="M422.4 819.2c0 51.2 38.4 89.6 89.6 89.6 51.2 0 89.6-38.4 89.6-89.6L422.4 819.2z" p-id="3524" fill="#7c879a"></path></svg>