<?xml version="1.0" standalone="no"?><!DOCTYPE svg PUBLIC "-//W3C//DTD SVG 1.1//EN" "http://www.w3.org/Graphics/SVG/1.1/DTD/svg11.dtd"><svg t="1488468201407" class="icon" style="" viewBox="0 0 1024 1024" version="1.1" xmlns="http://www.w3.org/2000/svg" p-id="4036" xmlns:xlink="http://www.w3.org/1999/xlink" width="25" height="25"><defs><style type="text/css"></style></defs><path d="M512 128C300.8 128 128 300.8 128 512s172.8 384 384 384 384-172.8 384-384S723.2 128 512 128zM640 492.8l-198.4 256c-6.4 6.4-12.8 0-12.8-6.4l38.4-204.8L390.4 537.6C384 537.6 384 531.2 384 531.2l198.4-256c6.4-6.4 12.8 0 12.8 6.4L563.2 486.4l70.4 0C640 486.4 640 492.8 640 492.8z" p-id="4037" fill="#c98383"></path></svg>